<mxfile host="app.diagrams.net" modified="2023-08-28T07:47:36.397Z" agent="Mozilla/5.0 (Macintosh; Intel Mac OS X 10_15_7) AppleWebKit/537.36 (KHTML, like Gecko) Chrome/115.0.0.0 Safari/537.36" etag="3QqUCQaU8qnubp2Q8rKS" version="21.6.9" type="github">
  <diagram name="第 1 页" id="eCn1pgjikm2ZezW22cam">
    <mxGraphModel dx="945" dy="773" grid="1" gridSize="10" guides="1" tooltips="1" connect="1" arrows="1" fold="1" page="1" pageScale="1" pageWidth="827" pageHeight="1169" math="0" shadow="0">
      <root>
        <mxCell id="0" />
        <mxCell id="1" parent="0" />
        <mxCell id="kDmmCawddB5vqNu6WQzT-33" value="" style="group" vertex="1" connectable="0" parent="1">
          <mxGeometry x="180" y="270" width="140" height="140" as="geometry" />
        </mxCell>
        <mxCell id="kDmmCawddB5vqNu6WQzT-15" value="" style="verticalLabelPosition=bottom;verticalAlign=top;html=1;shape=mxgraph.basic.rect;fillColor2=none;strokeWidth=1;size=20;indent=5;movable=1;resizable=1;rotatable=1;deletable=1;editable=1;locked=0;connectable=1;" vertex="1" parent="kDmmCawddB5vqNu6WQzT-33">
          <mxGeometry width="35" height="35" as="geometry" />
        </mxCell>
        <mxCell id="kDmmCawddB5vqNu6WQzT-16" value="" style="verticalLabelPosition=bottom;verticalAlign=top;html=1;shape=mxgraph.basic.rect;fillColor2=none;strokeWidth=1;size=20;indent=5;movable=1;resizable=1;rotatable=1;deletable=1;editable=1;locked=0;connectable=1;" vertex="1" parent="kDmmCawddB5vqNu6WQzT-33">
          <mxGeometry x="35" width="35" height="35" as="geometry" />
        </mxCell>
        <mxCell id="kDmmCawddB5vqNu6WQzT-17" value="" style="verticalLabelPosition=bottom;verticalAlign=top;html=1;shape=mxgraph.basic.rect;fillColor2=none;strokeWidth=1;size=20;indent=5;movable=1;resizable=1;rotatable=1;deletable=1;editable=1;locked=0;connectable=1;" vertex="1" parent="kDmmCawddB5vqNu6WQzT-33">
          <mxGeometry x="70" width="35" height="35" as="geometry" />
        </mxCell>
        <mxCell id="kDmmCawddB5vqNu6WQzT-18" value="" style="verticalLabelPosition=bottom;verticalAlign=top;html=1;shape=mxgraph.basic.rect;fillColor2=none;strokeWidth=1;size=20;indent=5;movable=1;resizable=1;rotatable=1;deletable=1;editable=1;locked=0;connectable=1;" vertex="1" parent="kDmmCawddB5vqNu6WQzT-33">
          <mxGeometry x="105" width="35" height="35" as="geometry" />
        </mxCell>
        <mxCell id="kDmmCawddB5vqNu6WQzT-21" value="" style="verticalLabelPosition=bottom;verticalAlign=top;html=1;shape=mxgraph.basic.rect;fillColor2=none;strokeWidth=1;size=20;indent=5;movable=1;resizable=1;rotatable=1;deletable=1;editable=1;locked=0;connectable=1;" vertex="1" parent="kDmmCawddB5vqNu6WQzT-33">
          <mxGeometry y="35" width="35" height="35" as="geometry" />
        </mxCell>
        <mxCell id="kDmmCawddB5vqNu6WQzT-22" value="" style="verticalLabelPosition=bottom;verticalAlign=top;html=1;shape=mxgraph.basic.rect;fillColor2=none;strokeWidth=1;size=20;indent=5;movable=1;resizable=1;rotatable=1;deletable=1;editable=1;locked=0;connectable=1;" vertex="1" parent="kDmmCawddB5vqNu6WQzT-33">
          <mxGeometry x="35" y="35" width="35" height="35" as="geometry" />
        </mxCell>
        <mxCell id="kDmmCawddB5vqNu6WQzT-23" value="" style="verticalLabelPosition=bottom;verticalAlign=top;html=1;shape=mxgraph.basic.rect;fillColor2=none;strokeWidth=1;size=20;indent=5;movable=1;resizable=1;rotatable=1;deletable=1;editable=1;locked=0;connectable=1;" vertex="1" parent="kDmmCawddB5vqNu6WQzT-33">
          <mxGeometry x="70" y="35" width="35" height="35" as="geometry" />
        </mxCell>
        <mxCell id="kDmmCawddB5vqNu6WQzT-24" value="" style="verticalLabelPosition=bottom;verticalAlign=top;html=1;shape=mxgraph.basic.rect;fillColor2=none;strokeWidth=1;size=20;indent=5;movable=1;resizable=1;rotatable=1;deletable=1;editable=1;locked=0;connectable=1;" vertex="1" parent="kDmmCawddB5vqNu6WQzT-33">
          <mxGeometry x="105" y="35" width="35" height="35" as="geometry" />
        </mxCell>
        <mxCell id="kDmmCawddB5vqNu6WQzT-25" value="" style="verticalLabelPosition=bottom;verticalAlign=top;html=1;shape=mxgraph.basic.rect;fillColor2=none;strokeWidth=1;size=20;indent=5;movable=1;resizable=1;rotatable=1;deletable=1;editable=1;locked=0;connectable=1;" vertex="1" parent="kDmmCawddB5vqNu6WQzT-33">
          <mxGeometry x="105" y="70" width="35" height="35" as="geometry" />
        </mxCell>
        <mxCell id="kDmmCawddB5vqNu6WQzT-26" value="" style="verticalLabelPosition=bottom;verticalAlign=top;html=1;shape=mxgraph.basic.rect;fillColor2=none;strokeWidth=1;size=20;indent=5;movable=1;resizable=1;rotatable=1;deletable=1;editable=1;locked=0;connectable=1;" vertex="1" parent="kDmmCawddB5vqNu6WQzT-33">
          <mxGeometry x="70" y="70" width="35" height="35" as="geometry" />
        </mxCell>
        <mxCell id="kDmmCawddB5vqNu6WQzT-27" value="" style="verticalLabelPosition=bottom;verticalAlign=top;html=1;shape=mxgraph.basic.rect;fillColor2=none;strokeWidth=1;size=20;indent=5;movable=1;resizable=1;rotatable=1;deletable=1;editable=1;locked=0;connectable=1;" vertex="1" parent="kDmmCawddB5vqNu6WQzT-33">
          <mxGeometry x="35" y="70" width="35" height="35" as="geometry" />
        </mxCell>
        <mxCell id="kDmmCawddB5vqNu6WQzT-28" value="" style="verticalLabelPosition=bottom;verticalAlign=top;html=1;shape=mxgraph.basic.rect;fillColor2=none;strokeWidth=1;size=20;indent=5;movable=1;resizable=1;rotatable=1;deletable=1;editable=1;locked=0;connectable=1;" vertex="1" parent="kDmmCawddB5vqNu6WQzT-33">
          <mxGeometry y="70" width="35" height="35" as="geometry" />
        </mxCell>
        <mxCell id="kDmmCawddB5vqNu6WQzT-29" value="" style="verticalLabelPosition=bottom;verticalAlign=top;html=1;shape=mxgraph.basic.rect;fillColor2=none;strokeWidth=1;size=20;indent=5;movable=1;resizable=1;rotatable=1;deletable=1;editable=1;locked=0;connectable=1;" vertex="1" parent="kDmmCawddB5vqNu6WQzT-33">
          <mxGeometry y="105" width="35" height="35" as="geometry" />
        </mxCell>
        <mxCell id="kDmmCawddB5vqNu6WQzT-30" value="" style="verticalLabelPosition=bottom;verticalAlign=top;html=1;shape=mxgraph.basic.rect;fillColor2=none;strokeWidth=1;size=20;indent=5;movable=1;resizable=1;rotatable=1;deletable=1;editable=1;locked=0;connectable=1;" vertex="1" parent="kDmmCawddB5vqNu6WQzT-33">
          <mxGeometry x="35" y="105" width="35" height="35" as="geometry" />
        </mxCell>
        <mxCell id="kDmmCawddB5vqNu6WQzT-31" value="" style="verticalLabelPosition=bottom;verticalAlign=top;html=1;shape=mxgraph.basic.rect;fillColor2=none;strokeWidth=1;size=20;indent=5;movable=1;resizable=1;rotatable=1;deletable=1;editable=1;locked=0;connectable=1;" vertex="1" parent="kDmmCawddB5vqNu6WQzT-33">
          <mxGeometry x="70" y="105" width="35" height="35" as="geometry" />
        </mxCell>
        <mxCell id="kDmmCawddB5vqNu6WQzT-32" value="" style="verticalLabelPosition=bottom;verticalAlign=top;html=1;shape=mxgraph.basic.rect;fillColor2=none;strokeWidth=1;size=20;indent=5;movable=1;resizable=1;rotatable=1;deletable=1;editable=1;locked=0;connectable=1;" vertex="1" parent="kDmmCawddB5vqNu6WQzT-33">
          <mxGeometry x="105" y="105" width="35" height="35" as="geometry" />
        </mxCell>
      </root>
    </mxGraphModel>
  </diagram>
</mxfile>
